# xmcd
#
# Track frame offsets:
#	150
#	10448
#	20998
#	34969
#	48515
#	63746
#	76303
#	90433
#	104961
#	115111
#	130955
#	141385
#	153303
#	172013
#	184882
#
# Disc length: 2699 seconds
#
# Revision: 0
# Processed by: cddbd v1.5.2PL0 Copyright (c) Steve Scherf et al.
# Submitted via: audiograbber 1.83.01
#
DISCID=dd0a890f
DTITLE=Ursprung Buam - Ursprung Buam [CD4]
DYEAR=1900
DGENRE=
TTITLE0=Zillertaler Ahnentanz - Ursprung Buam
TTITLE1=Romeo und Julia - Ursprung Buam
TTITLE2=I brauch' an Boarischen - Ursprung Buam
TTITLE3=Ruck No A Bisserl - Ursprung Buam
TTITLE4=Saurugg'n Boarischer - Ursprung Buam
TTITLE5=Vom huam giah woll'n ma nix wiss'n - Ursprung Buam
TTITLE6=Schinterpalfen Boarischer - Ursprung Buam
TTITLE7=Richtig Zillertolerisch - Ursprung Buam
TTITLE8=So geats zua - Ursprung Buam
TTITLE9=Temmach no amol - Ursprung Buam
TTITLE10=Verzwickt is a tia - Ursp~ung Buam
TTITLE11=Oh Maria - Ursprung Buam
TTITLE12=Wia a kluas Katzal - Ursprung Buam
TTITLE13=Zillertaler Polterabend - Ursprung Buam
TTITLE14=Wenn meine Gipfel träumen - Ursprung Buam
EXTD=
EXTT0=
EXTT1=
EXTT2=
EXTT3=
EXTT4=
EXTT5=
EXTT6=
EXTT7=
EXTT8=
EXTT9=
EXTT10=
EXTT11=
EXTT12=
EXTT13=
EXTT14=
PLAYORDER=
